<svg width="51" height="51" viewBox="0 0 51 51" fill="none" xmlns="http://www.w3.org/2000/svg">
<path d="M7.02104 0.82342C6.91345 0.842961 6.58088 0.911355 6.28744 0.969979C4.16489 1.39989 2.09125 3.15859 1.18159 5.30813C0.633834 6.60762 0.663178 5.42537 0.663178 25.7775C0.663178 46.1297 0.633834 44.9475 1.18159 46.2469C1.92497 47.9861 3.42151 49.4908 5.11368 50.204C6.43416 50.761 5.98422 50.7317 14.6798 50.761L22.7201 50.8V41.9479V33.1055H19.7857H16.8513V28.7087V24.3119H19.7759H22.7103L22.7396 20.6187C22.7788 17.1892 22.7983 16.8863 22.994 16.1535C23.8449 13.0953 26.2511 10.6917 29.3225 9.83191C30.0756 9.62673 30.2811 9.61696 35.2695 9.57788L40.4243 9.54857V13.9453V18.3519H35.9738H31.5233V21.3319V24.3119H35.9836H40.4439L40.3852 24.5758C40.3558 24.7321 40.0428 26.5885 39.6907 28.7087C39.3386 30.8289 39.0256 32.6854 38.9962 32.8417L38.9375 33.1055H35.2304H31.5233V41.9479V50.8L38.1061 50.761C43.701 50.7317 44.7476 50.7121 45.1682 50.5753C47.907 49.7351 49.8437 47.7516 50.5088 45.1233C50.7143 44.3221 50.7143 7.23293 50.5088 6.43175C49.9317 4.18451 48.2885 2.24016 46.1953 1.35103C44.8259 0.774567 46.3811 0.82342 25.9479 0.803878C15.6482 0.794108 7.12864 0.803878 7.02104 0.82342Z" fill="black"/>
</svg>
