<svg width="50" height="51" viewBox="0 0 50 51" fill="none" xmlns="http://www.w3.org/2000/svg">
<path d="M4.13901 1.10253C2.20617 1.57134 0.517376 3.31964 0.117142 5.24374C-0.0390472 5.97627 -0.0390472 45.9625 0.117142 46.695C0.527138 48.6777 2.30379 50.4553 4.28544 50.8655C4.64662 50.9436 10.7282 50.9729 25.0293 50.9729C47.3155 50.9729 45.8708 51.012 47.1007 50.3674C47.9891 49.8986 49.0043 48.8437 49.4338 47.9452C49.6193 47.5447 49.8243 46.9782 49.8829 46.695C50.039 45.9625 50.039 5.97627 49.8829 5.24374C49.4826 3.31964 47.7841 1.56158 45.8805 1.11229C45.3339 0.985322 42.7372 0.965788 24.9512 0.975555C8.91253 0.985322 4.53924 1.00486 4.13901 1.10253ZM27.46 7.46086C32.9754 8.19338 37.7977 11.1723 40.902 15.7921C42.4151 18.0483 43.4108 20.578 43.9086 23.4299C44.1429 24.7485 44.1429 28.206 43.9086 29.4855C43.5377 31.5366 43.0984 32.9235 42.2882 34.6132C40.121 39.1451 36.4994 42.5245 31.9114 44.2923C30.8766 44.6927 30.3592 44.722 30.0273 44.3802L29.7833 44.1458V41.0887C29.7833 37.1917 29.6466 36.3517 28.8559 35.3164L28.524 34.8866L29.3733 34.7597C34.508 33.9979 36.9777 31.2533 37.173 26.067C37.2511 24.1332 36.968 22.8732 36.1578 21.5351C35.9625 21.2128 35.6794 20.8124 35.5232 20.6366L35.2401 20.3143L35.4159 19.7478C35.6794 18.8883 35.6404 17.0911 35.3378 16.0558L35.1035 15.2745L34.5861 15.2452C33.6392 15.1866 32.0773 15.7628 30.5154 16.7395L29.8223 17.1693L28.6119 16.9056C27.499 16.6712 27.1964 16.6516 25.0976 16.6419C22.8231 16.6419 22.2472 16.7005 20.8317 17.0423L20.2167 17.1986L19.5139 16.7493C17.9227 15.7628 16.3706 15.1866 15.4139 15.2452L14.8965 15.2745L14.6622 16.0558C14.3596 17.0911 14.3206 18.8883 14.5841 19.7478L14.7599 20.3143L14.4768 20.6366C13.0418 22.2774 12.5146 24.6703 12.9442 27.5907C13.5592 31.7221 15.941 34.0076 20.3924 34.7304L21.4467 34.9062L21.1343 35.3164C20.8024 35.7461 20.4705 36.5275 20.3631 37.1331C20.2948 37.4651 20.2558 37.4944 19.6896 37.6898C18.7915 37.9828 17.952 38.0414 17.1906 37.8461C16.2339 37.6019 15.6091 37.1135 14.7891 35.9708C13.8422 34.662 13.1004 34.1151 12.0363 33.9295C11.5189 33.8416 10.943 34.0174 10.943 34.2713C10.943 34.369 11.148 34.6229 11.4018 34.828C12.5927 35.795 13.0418 36.3419 13.6177 37.514C14.0668 38.4321 14.2718 38.7446 14.7013 39.1353C15.7263 40.0827 16.722 40.3757 18.606 40.2976C19.3089 40.278 19.9531 40.2194 20.0508 40.1804C20.207 40.112 20.2167 40.2487 20.2167 42.124C20.2167 44.136 20.2167 44.1458 19.9727 44.3802C19.6408 44.722 19.1332 44.6927 18.0398 44.2728C14.6037 42.9444 11.597 40.5906 9.30301 37.4163C8.61968 36.4689 7.27255 33.8318 6.9016 32.7086C6.14018 30.4134 5.92542 29.0069 5.92542 26.4577C5.92542 23.6057 6.24756 21.8379 7.19446 19.4255C9.75205 12.9597 15.5506 8.40826 22.4619 7.46086C23.7407 7.28505 26.1324 7.28505 27.46 7.46086ZM13.0711 34.6913C13.1004 34.828 13.0613 34.8671 12.8758 34.8378C12.7587 34.8183 12.6415 34.7304 12.622 34.6327C12.5927 34.496 12.6318 34.4569 12.8173 34.4862C12.9344 34.5057 13.0515 34.5936 13.0711 34.6913ZM13.8618 35.3359C14.0082 35.6094 13.7544 35.8047 13.5396 35.5899C13.4518 35.502 13.3834 35.3652 13.3834 35.2871C13.3834 35.082 13.7544 35.1211 13.8618 35.3359ZM14.672 36.3712C14.7501 36.547 14.7501 36.6545 14.6818 36.7228C14.5158 36.8889 14.1644 36.6545 14.1644 36.3712C14.1644 36.0392 14.5158 36.0392 14.672 36.3712ZM15.5506 37.3675C15.8922 37.68 15.6579 38.0121 15.248 37.7875C14.9941 37.6605 14.9649 37.2014 15.2089 37.2014C15.2968 37.2014 15.4529 37.2698 15.5506 37.3675ZM17.0734 38.4125C17.1027 38.5297 17.0344 38.5688 16.8294 38.5688C16.5365 38.5688 16.312 38.4125 16.312 38.2172C16.312 37.8949 17.0051 38.0805 17.0734 38.4125ZM20.0215 38.1781C20.2362 38.3149 20.0215 38.6079 19.6896 38.647C19.3967 38.686 19.2503 38.4516 19.4358 38.227C19.5724 38.0609 19.8067 38.0414 20.0215 38.1781ZM18.5572 38.4321C18.6646 38.5493 18.6646 38.6079 18.5279 38.7349C18.3229 38.94 17.8739 38.8325 17.8739 38.5786C17.8739 38.2758 18.3522 38.1684 18.5572 38.4321Z" fill="black"/>
</svg>
