<svg width="50" height="50" viewBox="0 0 50 50" fill="none" xmlns="http://www.w3.org/2000/svg">
<path d="M3.80903 0.150711C3.51606 0.228843 3.03756 0.414409 2.73483 0.560908C2.04148 0.90274 0.908695 2.03567 0.566905 2.7291C-0.0385515 3.95969 0.000510194 2.4654 0.000510194 24.997C0.000510194 47.5285 -0.0385515 46.0342 0.566905 47.2648C0.908695 47.9583 2.04148 49.0912 2.73483 49.433C3.96527 50.0386 2.47116 49.9995 25 49.9995C47.5288 49.9995 46.0347 50.0386 47.2652 49.433C47.9585 49.0912 49.0913 47.9583 49.4331 47.2648C50.0386 46.0342 49.9995 47.5285 49.9995 24.997C49.9995 2.4654 50.0386 3.95969 49.4331 2.7291C49.0913 2.03567 47.9585 0.90274 47.2652 0.560908C46.0347 -0.0446216 47.5386 -0.0055552 24.9512 0.00421141C7.13904 0.00421141 4.27777 0.0237446 3.80903 0.150711ZM12.6272 6.98734C14.8928 7.7296 16.1818 10.0736 15.5764 12.398C14.9514 14.8202 12.344 16.2656 9.95148 15.5234C7.26599 14.703 6.01601 11.7534 7.26599 9.21412C7.85191 8.03237 9.13118 7.06547 10.4202 6.83107C11.0257 6.72364 12.0315 6.79201 12.6272 6.98734ZM36.0349 19.8207C38.4665 20.5239 40.4782 22.233 41.6012 24.5477C42.4801 26.3545 42.4215 25.6806 42.4508 34.5878L42.4899 42.4792H38.7204H34.9607V35.5644C34.9607 29.3724 34.9412 28.5911 34.7947 28.1613C34.3357 26.8038 33.2225 25.8369 31.8163 25.583C30.4491 25.329 28.8769 26.0615 28.0956 27.3117C27.5292 28.2199 27.539 28.0344 27.539 35.5644V42.4792H23.7793H20.0196V31.2476V20.016H23.7793H27.539V21.4224V22.8288L28.4472 21.9303C29.58 20.7876 30.8495 20.0551 32.3729 19.6644C33.1151 19.4691 35.117 19.557 36.0349 19.8207ZM15.0393 31.2476V42.4792H11.2796H7.51989V31.2476V20.016H11.2796H15.0393V31.2476Z" fill="black"/>
</svg>
