<svg width="50" height="50" viewBox="0 0 50 50" fill="none" xmlns="http://www.w3.org/2000/svg">
<path d="M20.7719 25.4806L33.3331 18.75L23.9056 27.8093L23.4619 31.9537L26.0294 29.4693L34.4156 36.2912L38.6394 13.6943L15.1444 23.47L20.7719 25.4806Z" fill="black"/>
<path d="M45.8331 0H4.16687C1.87562 0 0 1.87562 0 4.16687V45.8331C0 48.1244 1.87562 50 4.16687 50H45.8331C48.1244 50 50 48.1244 50 45.8331V4.16687C50 1.87562 48.1244 0 45.8331 0ZM37.8219 40.755C37.8219 40.755 36.9919 42.9563 34.7094 41.9006L26.2694 35.0362L20.8575 40.2731C20.8575 40.2731 20.4344 40.6131 19.9706 40.3994C19.9706 40.3994 19.5719 40.3587 19.0719 38.6906C18.575 37.0162 16.0444 28.2169 16.0444 28.2169L7.66625 25.2244C7.66625 25.2244 6.38 24.74 6.25813 23.6838C6.1325 22.6281 7.71062 22.0544 7.71062 22.0544L41.0112 8.19563C41.0112 8.19563 43.75 6.92 43.75 9.03188L37.8219 40.755Z" fill="black"/>
</svg>
